HIERARCHY
ROOT Hips
{
 OFFSET 0.000000 0.000000 0.000000
 CHANNELS 6 Xposition Yposition Zposition Yrotation Xrotation Zrotation
 JOINT Chest
 {
  OFFSET 0.000000 9.585900 0.002600
  CHANNELS 3 Yrotation Xrotation Zrotation
  JOINT Chest2
  {
   OFFSET 0.000000 9.601200 -0.005300
   CHANNELS 3 Yrotation Xrotation Zrotation
   JOINT Chest3
   {
    OFFSET 0.000000 9.561800 0.000000
    CHANNELS 3 Yrotation Xrotation Zrotation
    JOINT Chest4
    {
     OFFSET 0.000000 9.552100 0.000000
     CHANNELS 3 Yrotation Xrotation Zrotation
     JOINT Neck
     {
      OFFSET 0.000000 14.453000 0.000000
      CHANNELS 3 Yrotation Xrotation Zrotation
      JOINT Head
      {
       OFFSET 0.000000 8.936500 -0.011300
       CHANNELS 3 Yrotation Xrotation Zrotation
       End Site
       {
        OFFSET 0.000000 17.073600 -0.006000
       }
      }
     }
     JOINT RightCollar
     {
      OFFSET -2.921100 9.558500 0.000000
      CHANNELS 3 Yrotation Xrotation Zrotation
      JOINT RightShoulder
      {
       OFFSET -13.519700 0.000000 0.000000
       CHANNELS 3 Yrotation Xrotation Zrotation
       JOINT RightElbow
       {
        OFFSET 0.000000 -29.696600 0.000000
        CHANNELS 3 Yrotation Xrotation Zrotation
        JOINT RightWrist
        {
         OFFSET 0.000000 -24.004700 0.000000
         CHANNELS 3 Yrotation Xrotation Zrotation
         End Site
         {
          OFFSET 0.000000 -17.728500 0.000000
         }
        }
       }
      }
     }
     JOINT LeftCollar
     {
      OFFSET 2.921100 9.558500 0.000000
      CHANNELS 3 Yrotation Xrotation Zrotation
      JOINT LeftShoulder
      {
       OFFSET 13.519700 0.000000 0.000000
       CHANNELS 3 Yrotation Xrotation Zrotation
       JOINT LeftElbow
       {
        OFFSET 0.000000 -29.696600 0.000000
        CHANNELS 3 Yrotation Xrotation Zrotation
        JOINT LeftWrist
        {
         OFFSET 0.000000 -24.004700 0.000000
         CHANNELS 3 Yrotation Xrotation Zrotation
         End Site
         {
          OFFSET 0.000000 -17.728500 0.000000
         }
        }
       }
      }
     }
    }
   }
  }
 }
 JOINT RightHip
 {
  OFFSET -7.771700 -0.012900 -0.001300
  CHANNELS 3 Yrotation Xrotation Zrotation
  JOINT RightKnee
  {
   OFFSET 0.000000 -40.869800 0.001200
   CHANNELS 3 Yrotation Xrotation Zrotation
   JOINT RightAnkle
   {
    OFFSET 0.000000 -39.717900 0.002100
    CHANNELS 3 Yrotation Xrotation Zrotation
    JOINT RightToe
    {
     OFFSET 0.000000 -4.965400 11.033500
     CHANNELS 3 Yrotation Xrotation Zrotation
     End Site
     {
      OFFSET 0.000000 -1.423100 5.872300
     }
    }
   }
  }
 }
 JOINT LeftHip
 {
  OFFSET 7.771700 -0.012900 -0.001300
  CHANNELS 3 Yrotation Xrotation Zrotation
  JOINT LeftKnee
  {
   OFFSET 0.000000 -40.869800 0.001200
   CHANNELS 3 Yrotation Xrotation Zrotation
   JOINT LeftAnkle
   {
    OFFSET 0.000000 -39.717900 0.002100
    CHANNELS 3 Yrotation Xrotation Zrotation
    JOINT LeftToe
    {
     OFFSET 0.000000 -4.965400 11.033500
     CHANNELS 3 Yrotation Xrotation Zrotation
     End Site
     {
      OFFSET 0.000000 -1.423100 5.872300
     }
    }
   }
  }
 }
}
MOTION
Frames: 15
Frame Time: 0.008333
0.000000 85.388000 0.000000 0.000000 -5.767877 0.000000 0.000000 11.653817 0.000000 0.000000 -5.885947 0.000000 0.000000 -0.000000 0.000000 0.000000 -0.000000 0.000000 0.000000 12.528835 0.000000 0.000000 0.711642 0.000000 0.000000 -0.000000 0.000000 0.000000 0.000000 -90.000000 0.000000 -2.309062 0.000000 0.000000 2.309062 0.000000 0.000000 -0.000000 0.000000 0.000000 -0.000000 90.000000 0.000000 -2.309062 0.000000 0.000000 2.309062 0.000000 0.000000 8.520406 0.000000 0.000000 1.905762 0.000000 -0.000000 -4.658285 0.000000 0.000000 -0.000000 0.000000 0.000000 8.520406 0.000000 0.000000 1.905762 0.000000 -0.000000 -4.658285 0.000000 0.000000 -0.000000 0.000000
-26.997000 55.329226 7.169331 -176.534245 -22.246847 -1.668996 -1.817359 18.171958 0.490249 -0.209078 2.047290 0.088549 -0.343039 3.389421 0.172458 -1.554276 15.866379 0.599224 6.755033 20.165017 -9.392919 9.838979 -3.347373 -12.232040 2.134058 9.138993 -1.133139 -8.432934 -13.719963 -1.390331 -78.878049 -14.425731 105.738826 -41.906945 -7.059526 6.663063 -4.462849 10.034303 0.826807 21.521097 -15.088694 -1.615503 63.910698 -9.928648 -105.015112 31.720034 -25.475062 -5.371555 -1.234986 -52.752243 10.312801 -76.811848 87.270901 -82.135412 -9.992541 -21.081460 14.351666 0.051173 -0.114998 0.066432 10.247444 -49.089009 -5.212363 108.425136 77.866928 104.944526 -9.098478 -24.099571 3.299862 0.094964 0.192724 0.053095
-26.998837 55.327024 7.167728 -176.527204 -22.249697 -1.663788 -1.829555 18.175730 0.496637 -0.205972 2.044321 0.086216 -0.344480 3.389589 0.166573 -1.559119 15.861167 0.614561 6.858511 20.115524 -9.413897 9.971252 -3.399102 -12.298602 2.152573 9.123016 -1.135515 -8.287104 -13.750641 -1.410819 -78.895578 -14.559824 105.764191 -41.816783 -6.989650 6.661353 -4.474786 9.984609 0.799301 21.385766 -15.140640 -1.565630 63.907803 -10.008788 -104.947128 31.685124 -25.450434 -5.337168 -1.221251 -52.751877 10.301733 -77.025159 87.261027 -82.359212 -9.976883 -21.090041 14.343049 0.034264 -0.113417 0.078932 10.249240 -49.085423 -5.224979 108.433575 77.866405 104.953361 -9.097001 -24.101168 3.299148 0.093124 0.194483 0.051348
-26.999887 55.324427 7.166644 -176.526573 -22.249964 -1.661036 -1.838113 18.175385 0.508570 -0.202667 2.048146 0.086694 -0.346700 3.389990 0.168708 -1.574341 15.861981 0.649170 6.973328 20.066630 -9.473684 10.121000 -3.439446 -12.374303 2.217126 9.067184 -1.146521 -8.176639 -13.749190 -1.466314 -78.892776 -14.670542 105.784651 -41.726441 -6.901940 6.673719 -4.474990 9.946088 0.738503 21.250466 -15.226757 -1.527895 63.888419 -10.080543 -104.880084 31.654463 -25.419893 -5.300488 -1.205309 -52.755998 10.296374 -77.165781 87.254959 -82.496914 -10.003666 -21.090499 14.343663 0.045528 -0.108607 0.084002 10.251854 -49.084785 -5.230156 108.440777 77.869149 104.961903 -9.096041 -24.104968 3.299089 0.095698 0.200037 0.048389
-27.000898 55.322119 7.164905 -176.530872 -22.256495 -1.657131 -1.841877 18.179124 0.521099 -0.206312 2.050262 0.088611 -0.351502 3.389769 0.181673 -1.578428 15.862394 0.655969 7.099977 20.027075 -9.519330 10.281440 -3.468264 -12.454919 2.283248 9.018081 -1.147064 -8.081347 -13.744254 -1.523320 -78.862539 -14.752418 105.801277 -41.631044 -6.804289 6.698623 -4.476749 9.861648 0.698867 21.118052 -15.270616 -1.478285 63.847333 -10.135680 -104.818704 31.629598 -25.386043 -5.262198 -1.184899 -52.754236 10.295587 -77.301474 87.247743 -82.626067 -10.058903 -21.087569 14.347359 0.042885 -0.103253 0.072314 10.257117 -49.077570 -5.232567 108.453147 77.869234 104.976803 -9.098362 -24.110819 3.297566 0.096360 0.203454 0.048455
-27.002678 55.319890 7.163484 -176.538033 -22.263969 -1.647476 -1.842283 18.183670 0.529548 -0.212796 2.047989 0.108514 -0.346033 3.393004 0.154334 -1.580228 15.863886 0.677319 7.231348 19.992786 -9.555936 10.447468 -3.489608 -12.537982 2.334872 8.979134 -1.150254 -7.988651 -13.739886 -1.573238 -78.812239 -14.809905 105.817589 -41.528378 -6.700879 6.728930 -4.476799 9.774498 0.672561 20.988155 -15.318853 -1.430600 63.780776 -10.167359 -104.764402 31.611147 -25.348616 -5.227353 -1.153383 -52.752487 10.280332 -77.444898 87.241129 -82.762820 -10.087700 -21.087432 14.351712 0.029470 -0.101148 0.062666 10.267144 -49.068757 -5.242846 108.460123 77.865738 104.982121 -9.095403 -24.115151 3.299432 0.094877 0.204938 0.044952
-27.003999 55.317477 7.163315 -176.540044 -22.266026 -1.641805 -1.843969 18.183809 0.540959 -0.213018 2.048319 0.109944 -0.350909 3.392746 0.178051 -1.585846 15.865128 0.657449 7.367531 19.962609 -9.585002 10.612037 -3.504757 -12.620748 2.357874 8.958849 -1.160320 -7.873498 -13.746386 -1.615544 -78.755278 -14.855768 105.833359 -41.423800 -6.598847 6.754775 -4.471880 9.700523 0.650209 20.861879 -15.387159 -1.387679 63.688782 -10.179945 -104.719357 31.599790 -25.300852 -5.202007 -1.143540 -52.752606 10.268119 -77.485505 87.249250 -82.810108 -10.052612 -21.096479 14.346385 0.001504 -0.101295 0.056937 10.269334 -49.065776 -5.252311 108.456738 77.862086 104.974131 -9.082814 -24.120622 3.302529 0.086216 0.209470 0.038575
-27.005689 55.315140 7.163903 -176.537248 -22.266006 -1.634875 -1.849328 18.182835 0.540892 -0.210845 2.047129 0.119252 -0.352432 3.393591 0.175715 -1.578792 15.865451 0.673991 7.489496 19.937703 -9.620705 10.767165 -3.515781 -12.700153 2.369716 8.939810 -1.174454 -7.755823 -13.748821 -1.666154 -78.696877 -14.901212 105.845833 -41.326096 -6.507432 6.770057 -4.479201 9.624174 0.620120 20.740672 -15.456128 -1.346090 63.583433 -10.182576 -104.686947 31.591735 -25.239700 -5.182964 -1.134679 -52.754297 10.251078 -77.507462 87.260576 -82.834198 -10.035668 -21.106224 14.339413 0.027882 -0.095213 0.056646 10.267272 -49.063747 -5.267929 108.431683 77.857012 104.943103 -9.063439 -24.124836 3.300939 0.074510 0.215984 0.033249
-27.006757 55.313117 7.164664 -176.537524 -22.267129 -1.629478 -1.850253 18.182435 0.543316 -0.206701 2.044553 0.129237 -0.351756 3.393773 0.177964 -1.570671 15.865521 0.693312 7.592883 19.915374 -9.662834 10.907650 -3.526513 -12.774708 2.404561 8.901368 -1.183313 -7.665055 -13.725765 -1.732176 -78.636907 -14.953436 105.852091 -41.239995 -6.429221 6.775923 -4.495978 9.550632 0.584492 20.624122 -15.527741 -1.304746 63.478807 -10.181456 -104.667054 31.583889 -25.168647 -5.167719 -1.134010 -52.754189 10.253093 -77.543085 87.255102 -82.874631 -10.050433 -21.108909 14.341407 0.046213 -0.089003 0.047165 10.271604 -49.061802 -5.277172 108.408525 77.857884 104.920597 -9.062785 -24.124061 3.300907 0.071398 0.220201 0.031446
-27.007701 55.312029 7.164079 -176.541060 -22.278798 -1.622856 -1.842865 18.190860 0.554887 -0.206408 2.041202 0.131850 -0.349213 3.393006 0.184741 -1.579112 15.869245 0.683544 7.699913 19.886565 -9.682996 11.029913 -3.538722 -12.842680 2.502204 8.838283 -1.160194 -7.619840 -13.673871 -1.806678 -78.578769 -15.013719 105.851898 -41.162820 -6.363953 6.772710 -4.501980 9.515596 0.570543 20.520896 -15.635839 -1.276111 63.383797 -10.188233 -104.658718 31.572722 -25.090570 -5.153849 -1.127632 -52.743477 10.250766 -77.572863 87.260312 -82.908043 -10.063331 -21.110556 14.344635 0.042484 -0.087342 0.043784 10.271877 -49.050105 -5.285936 108.423302 77.861630 104.937479 -9.045035 -24.127720 3.295127 0.068308 0.220792 0.028900
-27.009130 55.310961 7.164254 -176.542526 -22.286913 -1.612498 -1.834422 18.187001 0.577178 -0.209677 2.046677 0.118890 -0.348656 3.392561 0.186478 -1.585254 15.870204 0.681471 7.768261 19.867550 -9.702431 11.146431 -3.562966 -12.910346 2.565493 8.796046 -1.154009 -7.544365 -13.634533 -1.868151 -78.522677 -15.078670 105.847149 -41.087920 -6.313278 6.759759 -4.506535 9.482749 0.555136 20.422394 -15.744617 -1.246693 63.305936 -10.221831 -104.660197 31.550402 -25.011283 -5.134789 -1.119102 -52.736489 10.238943 -77.584052 87.261657 -82.923536 -10.061762 -21.110532 14.346829 0.042349 -0.087551 0.038531 10.278868 -49.041318 -5.300782 108.418276 77.860743 104.932795 -9.039744 -24.124115 3.292030 0.067962 0.217939 0.028779
-27.008382 55.309859 7.165211 -176.541703 -22.290008 -1.614440 -1.824121 18.184479 0.599217 -0.214142 2.049079 0.112921 -0.350532 3.393139 0.183796 -1.574760 15.865248 0.698986 7.822171 19.847272 -9.730047 11.159729 -3.555804 -12.918173 2.587367 8.775731 -1.164666 -7.442028 -13.610627 -1.924291 -78.463835 -15.147769 105.841595 -41.012955 -6.277532 6.738713 -4.501135 9.426114 0.529066 20.303535 -15.829591 -1.200950 63.253900 -10.304496 -104.666281 31.510707 -24.938981 -5.108958 -1.134087 -52.731973 10.245577 -77.518227 87.263635 -82.862516 -10.037556 -21.111703 14.343574 0.022417 -0.089472 0.027642 10.273969 -49.040116 -5.297013 108.413514 77.862049 104.930520 -9.040396 -24.123540 3.287681 0.065387 0.219474 0.030255
-27.008704 55.309142 7.165785 -176.544373 -22.296439 -1.607803 -1.814207 18.186857 0.606492 -0.221280 2.051965 0.105899 -0.347834 3.392234 0.188106 -1.562315 15.863651 0.715569 7.869971 19.819816 -9.758026 11.165231 -3.546651 -12.919390 2.619301 8.740614 -1.173972 -7.355844 -13.573767 -1.983866 -78.398961 -15.223586 105.836295 -40.938572 -6.248806 6.716226 -4.483822 9.312381 0.483432 20.163616 -15.868170 -1.111462 63.237950 -10.455356 -104.672022 31.452120 -24.877912 -5.075795 -1.142984 -52.725137 10.243400 -77.513499 87.263048 -82.867123 -10.008876 -21.111665 14.342087 0.051115 -0.087972 0.021651 10.278830 -49.034009 -5.302931 108.411141 77.861071 104.927924 -9.040458 -24.120929 3.284757 0.065362 0.218093 0.031347
-27.008184 55.308657 7.166294 -176.547696 -22.303264 -1.605379 -1.802089 18.190566 0.614606 -0.218336 2.050468 0.110961 -0.345863 3.392065 0.188783 -1.530194 15.864991 0.725727 7.846194 19.807180 -9.771669 11.224725 -3.578452 -12.962951 2.632072 8.695217 -1.171478 -7.285584 -13.526563 -2.048741 -78.331669 -15.303979 105.828081 -40.859739 -6.208555 6.705372 -4.519060 9.264640 0.456730 20.062441 -15.958544 -1.054718 63.266009 -10.686946 -104.674462 31.375446 -24.831099 -5.032673 -1.159907 -52.717072 10.253174 -77.483309 87.264681 -82.845722 -10.003797 -21.108689 14.343811 0.047712 -0.088936 0.015883 10.270368 -49.030036 -5.294594 108.421253 77.867975 104.938801 -9.039813 -24.114564 3.274169 0.076147 0.214426 0.036473
-27.008040 55.308212 7.167150 -176.550927 -22.308117 -1.600511 -1.789523 18.194086 0.617349 -0.220032 2.048653 0.114188 -0.329705 3.395692 0.190091 -1.545912 15.865351 0.720960 7.842724 19.800721 -9.771991 11.237228 -3.630085 -12.990169 2.643999 8.674799 -1.166185 -7.184926 -13.507581 -2.111313 -78.265692 -15.387897 105.815977 -40.771155 -6.144108 6.716116 -4.517521 9.220116 0.435965 19.965152 -16.049099 -0.995103 63.341778 -11.010365 -104.671282 31.281016 -24.798801 -4.977189 -1.194784 -52.709475 10.270285 -77.438754 87.270451 -82.819128 -9.995844 -21.106741 14.339568 0.039677 -0.091186 0.011288 10.271881 -49.026550 -5.293450 108.433151 77.869077 104.949047 -9.042219 -24.112826 3.274409 0.079326 0.213006 0.035979
